<svg viewBox="0,0,954,600" width="954" height="600" xmlns="http://www.w3.org/2000/svg" xmlns:xlink="http://www.w3.org/1999/xlink"><g><g><path stroke="currentColor" d="&#10;        M59,534.9375&#10;        V561.035&#10;      "/><path fill="#ddd" d="&#10;        M41,546.57&#10;        H77&#10;        V554.325&#10;        H41&#10;        Z&#10;      "/><path stroke="currentColor" stroke-width="2" d="&#10;        M41,550.695&#10;        H77&#10;      "/><g fill="currentColor" fill-opacity="0.2" stroke="none" transform="translate(59,0)"><circle r="2" cx="-0.016086656915011766" cy="534.91"/><circle r="2" cx="0.8927426099604467" cy="534.91"/><circle r="2" cx="-1.591375414308624" cy="534.91"/><circle r="2" cx="0.942742406055114" cy="534.91"/><circle r="2" cx="-1.0951268084308579" cy="534.69"/><circle r="2" cx="-0.31275561772713356" cy="534.5525"/><circle r="2" cx="0.10741702616713678" cy="534.5525"/><circle r="2" cx="1.2497697525570999" cy="534.5525"/><circle r="2" cx="1.5435002668182305" cy="534.525"/><circle r="2" cx="1.9756344915682025" cy="534.525"/><circle r="2" cx="0.8605116227040455" cy="534.525"/><circle r="2" cx="1.1155560277926906" cy="534.525"/><circle r="2" cx="-0.1685638329826622" cy="534.525"/><circle r="2" cx="-0.1959048488272508" cy="534.525"/><circle r="2" cx="0.3058226515027398" cy="534.525"/><circle r="2" cx="1.8965778826180548" cy="534.47"/><circle r="2" cx="0.04913182899956414" cy="534.415"/><circle r="2" cx="-0.26538940281486756" cy="534.25"/><circle r="2" cx="-0.5450226343743179" cy="534.25"/><circle r="2" cx="0.24899899576863493" cy="534.25"/><circle r="2" cx="-0.2511125856805103" cy="534.25"/><circle r="2" cx="-0.6715556587507923" cy="534.25"/><circle r="2" cx="0.7629478168437451" cy="534.25"/><circle r="2" cx="-0.5438023938095915" cy="534.1675"/><circle r="2" cx="-1.1971688894002677" cy="533.975"/><circle r="2" cx="0.1235408368220936" cy="533.92"/><circle r="2" cx="-1.454823213760701" cy="533.92"/><circle r="2" cx="1.5921875255448565" cy="533.755"/><circle r="2" cx="1.5353303649531638" cy="533.7275"/><circle r="2" cx="-0.6395681785220546" cy="533.5074999999999"/><circle r="2" cx="0.06101666149613205" cy="533.5074999999999"/><circle r="2" cx="0.2973076253082949" cy="533.5074999999999"/><circle r="2" cx="1.7796553988406298" cy="533.5074999999999"/><circle r="2" cx="-1.1716197283906622" cy="533.425"/><circle r="2" cx="-0.963350521910681" cy="533.425"/><circle r="2" cx="1.307104418024986" cy="533.3975"/><circle r="2" cx="-1.734060047233938" cy="533.3425"/><circle r="2" cx="-1.6777935805887783" cy="533.3425"/><circle r="2" cx="-0.4077423205771815" cy="533.3425"/><circle r="2" cx="-0.3798660807590899" cy="533.095"/><circle r="2" cx="1.0614856513614752" cy="532.6275"/><circle r="2" cx="0.19719942054961948" cy="532.6275"/><circle r="2" cx="-1.2412970066126636" cy="532.545"/><circle r="2" cx="-0.4325562263776108" cy="532.545"/><circle r="2" cx="1.189893053796994" cy="532.38"/><circle r="2" cx="-1.9968907082989107" cy="532.38"/><circle r="2" cx="-0.23855603359069555" cy="532.215"/><circle r="2" cx="1.9725930964869294" cy="532.1325"/><circle r="2" cx="-0.37856773799089805" cy="531.8025"/><circle r="2" cx="0.2844729643547401" cy="531.5825"/><circle r="2" cx="1.0365511023548333" cy="531.5"/><circle r="2" cx="-0.9315256699638237" cy="531.5"/><circle r="2" cx="-1.3049356149525666" cy="531.5"/><circle r="2" cx="-0.631603122616724" cy="531.5"/><circle r="2" cx="1.4178598548038943" cy="531.445"/><circle r="2" cx="1.146384366700575" cy="531.445"/><circle r="2" cx="0.31511761209188194" cy="531.335"/><circle r="2" cx="1.7306955823962218" cy="531.2525"/><circle r="2" cx="1.4524806255656246" cy="531.0875"/><circle r="2" cx="-0.7549097582718227" cy="531.0875"/><circle r="2" cx="0.07046799332767151" cy="531.005"/><circle r="2" cx="-1.1332993575678474" cy="530.9225"/><circle r="2" cx="-0.6731715666823588" cy="530.5925"/><circle r="2" cx="-0.3382482346436868" cy="530.5925"/><circle r="2" cx="-1.5098561408840396" cy="530.5925"/><circle r="2" cx="1.7673333627260446" cy="530.5925"/><circle r="2" cx="0.5805622551333922" cy="530.4"/><circle r="2" cx="-0.8524393489525446" cy="525.34"/><circle r="2" cx="0.05728551742988319" cy="524.02"/><circle r="2" cx="1.2168345586090261" cy="522.8375"/><circle r="2" cx="-0.8864040206025887" cy="522.755"/><circle r="2" cx="-0.15830755330004465" cy="521.49"/><circle r="2" cx="1.204537867658395" cy="521.16"/><circle r="2" cx="1.9239593817262293" cy="520.005"/><circle r="2" cx="-1.37278741958038" cy="518.6575"/><circle r="2" cx="-0.7755267073241034" cy="517.3375"/><circle r="2" cx="-1.2750953284748698" cy="517.2825"/><circle r="2" cx="-1.0063026554298915" cy="515.22"/><circle r="2" cx="0.9547418000156398" cy="510.6"/><circle r="2" cx="-0.9890180785338023" cy="507.1075"/><circle r="2" cx="-0.9655820138720692" cy="507.1075"/><circle r="2" cx="1.7219986556243168" cy="505.485"/><circle r="2" cx="-1.4014160441457895" cy="505.485"/><circle r="2" cx="-0.7118379584621328" cy="504.935"/></g></g><g><path stroke="currentColor" d="&#10;        M96,492.21968749999996&#10;        V557.57&#10;      "/><path fill="#ddd" d="&#10;        M78,522.0125&#10;        H114&#10;        V541.874375&#10;        H78&#10;        Z&#10;      "/><path stroke="currentColor" stroke-width="2" d="&#10;        M78,533.3975&#10;        H114&#10;      "/><g fill="currentColor" fill-opacity="0.2" stroke="none" transform="translate(96,0)"><circle r="2" cx="1.2661402918622393" cy="492.2025"/><circle r="2" cx="1.7097117566947064" cy="492.175"/><circle r="2" cx="1.5017999941408142" cy="492.175"/><circle r="2" cx="-0.7405331769438321" cy="492.0925"/><circle r="2" cx="0.23371755787971882" cy="492.065"/><circle r="2" cx="1.4823040975051587" cy="492.065"/><circle r="2" cx="1.325778255141282" cy="491.8725"/><circle r="2" cx="-0.8717831332237802" cy="491.68"/><circle r="2" cx="1.7600385775517449" cy="491.57"/><circle r="2" cx="1.846051362729801" cy="491.46"/><circle r="2" cx="-1.9391717810261984" cy="491.35"/><circle r="2" cx="-1.1976061936349547" cy="491.35"/><circle r="2" cx="0.21452271382675736" cy="491.185"/><circle r="2" cx="0.30608281020494044" cy="491.185"/><circle r="2" cx="-1.0609459239851642" cy="491.1575"/><circle r="2" cx="-1.072163781279671" cy="491.075"/><circle r="2" cx="-0.2708847935933809" cy="490.745"/><circle r="2" cx="-1.0602906161483983" cy="490.5525"/><circle r="2" cx="-1.9243963540395193" cy="490.5525"/><circle r="2" cx="1.166157220146939" cy="490.36"/><circle r="2" cx="1.6963906938120772" cy="490.3325"/><circle r="2" cx="-0.8819048968346621" cy="490.3325"/><circle r="2" cx="1.7785279057882137" cy="490.1125"/><circle r="2" cx="-1.6711637315582912" cy="489.9475"/><circle r="2" cx="1.4927908094928712" cy="489.645"/><circle r="2" cx="1.8473721681618889" cy="489.5625"/><circle r="2" cx="-0.7012426952389861" cy="489.3425"/><circle r="2" cx="0.4985514782427023" cy="489.0125"/><circle r="2" cx="-0.5450641775141785" cy="488.8475"/><circle r="2" cx="1.3217740475846558" cy="488.6275"/><circle r="2" cx="-0.8791199657834348" cy="488.325"/><circle r="2" cx="1.4720975404860797" cy="488.21500000000003"/><circle r="2" cx="-1.604647873379891" cy="488.1325"/><circle r="2" cx="1.1712594284773052" cy="487.83"/><circle r="2" cx="1.5929742870774417" cy="487.775"/><circle r="2" cx="0.17913562886140255" cy="487.4725"/><circle r="2" cx="0.42527769076854316" cy="487.3625"/><circle r="2" cx="0.315103777538174" cy="487.33500000000004"/><circle r="2" cx="-1.0524572362657194" cy="487.0325"/><circle r="2" cx="-1.3306353048490074" cy="486.785"/><circle r="2" cx="-0.9506295521660784" cy="486.62"/><circle r="2" cx="0.844929158551877" cy="486.5925"/><circle r="2" cx="0.49650164505440664" cy="485.9325"/><circle r="2" cx="-1.1732081822136822" cy="485.245"/><circle r="2" cx="-1.4903239303363431" cy="485.245"/><circle r="2" cx="0.4358175725838205" cy="485.19"/><circle r="2" cx="0.4023423842536671" cy="485.025"/><circle r="2" cx="-1.3550871999626546" cy="484.8325"/><circle r="2" cx="-0.14998446661576548" cy="484.8325"/><circle r="2" cx="-1.5909365321362872" cy="484.0625"/><circle r="2" cx="-0.7188972277426915" cy="484.03499999999997"/><circle r="2" cx="1.7591298730566924" cy="484.03499999999997"/><circle r="2" cx="-1.566230426231785" cy="483.6775"/><circle r="2" cx="0.9228197640657934" cy="483.265"/><circle r="2" cx="0.0471368502585916" cy="482.16499999999996"/><circle r="2" cx="1.406017247522044" cy="482.11"/><circle r="2" cx="-0.3595131896002881" cy="482.0825"/><circle r="2" cx="0.43594463710404074" cy="481.83500000000004"/><circle r="2" cx="1.1545897629079578" cy="481.505"/><circle r="2" cx="-1.2471163828349798" cy="481.3675"/><circle r="2" cx="-1.3640943440176452" cy="481.28499999999997"/><circle r="2" cx="-1.8093266101904808" cy="481.065"/><circle r="2" cx="-0.5859339274370772" cy="480.7075"/><circle r="2" cx="-1.3513290897241923" cy="480.075"/><circle r="2" cx="0.2219228692128592" cy="479.69"/><circle r="2" cx="-1.5930830282552648" cy="479.0575"/><circle r="2" cx="0.28933287922116513" cy="478.8925"/><circle r="2" cx="1.2856089375686004" cy="478.6725"/><circle r="2" cx="0.9250292702384142" cy="478.6175"/><circle r="2" cx="1.3854273294429245" cy="478.3425"/><circle r="2" cx="0.7378481861791482" cy="478.0675"/><circle r="2" cx="0.5936187849134376" cy="477.985"/><circle r="2" cx="1.0281304326624898" cy="477.82"/><circle r="2" cx="-1.1028536011303736" cy="477.6"/><circle r="2" cx="1.2529774468170878" cy="477.2425"/><circle r="2" cx="1.026504115960794" cy="477.105"/><circle r="2" cx="-1.2440604532335247" cy="477.105"/><circle r="2" cx="-1.154574022101671" cy="476.995"/><circle r="2" cx="-0.5354169090161269" cy="475.895"/><circle r="2" cx="1.109347666377051" cy="475.345"/><circle r="2" cx="-0.7315217062512742" cy="475.235"/><circle r="2" cx="0.05775836927321887" cy="475.235"/><circle r="2" cx="0.3565722784156362" cy="474.7125"/><circle r="2" cx="-0.528474190641969" cy="474.63"/><circle r="2" cx="1.6102825104159182" cy="474.63"/><circle r="2" cx="-1.970086230358815" cy="474.63"/><circle r="2" cx="-0.35241195636162814" cy="473.915"/><circle r="2" cx="-1.7009909232525393" cy="473.86"/><circle r="2" cx="-1.2693408344366501" cy="473.5025"/><circle r="2" cx="-0.12646852056769298" cy="473.2825"/><circle r="2" cx="-0.23058550040272863" cy="471.825"/><circle r="2" cx="-0.9874209052068972" cy="467.37"/><circle r="2" cx="1.1628842272086715" cy="467.1225"/><circle r="2" cx="1.922265741308677" cy="465.7475"/><circle r="2" cx="1.8457206623463112" cy="465.17"/><circle r="2" cx="-0.3587272685493579" cy="464.7575"/><circle r="2" cx="0.03265577040710177" cy="464.125"/><circle r="2" cx="0.752269914787175" cy="462.2"/><circle r="2" cx="-0.8212025291046734" cy="459.3125"/><circle r="2" cx="-0.03639625199477514" cy="459.12"/><circle r="2" cx="1.782671818142859" cy="458.845"/><circle r="2" cx="0.6390414971005258" cy="455.5725"/><circle r="2" cx="-0.6436795960427011" cy="455.27"/><circle r="2" cx="-1.7238998720414846" cy="454.28"/><circle r="2" cx="0.09792363854768205" cy="454.2525"/><circle r="2" cx="0.3493900330785644" cy="454.06"/><circle r="2" cx="-0.25016331692076754" cy="451.9425"/><circle r="2" cx="-0.5622293247931376" cy="449.88"/><circle r="2" cx="-1.8140212278789383" cy="447.9"/><circle r="2" cx="0.19004027326189377" cy="442.62"/><circle r="2" cx="-0.9881778823946838" cy="434.81"/></g></g><g><path stroke="currentColor" d="&#10;        M133,458.25374999999997&#10;        V539.10375&#10;      "/><path fill="#ddd" d="&#10;        M115,488.5725&#10;        H152&#10;        V508.785&#10;        H115&#10;        Z&#10;      "/><path stroke="currentColor" stroke-width="2" d="&#10;        M115,499.7925&#10;        H152&#10;      "/><g fill="currentColor" fill-opacity="0.2" stroke="none" transform="translate(133,0)"><circle r="2" cx="1.3568697464560682" cy="544.3975"/><circle r="2" cx="-1.6510498518892547" cy="544.3425"/><circle r="2" cx="-1.427177957879544" cy="544.0125"/><circle r="2" cx="-0.6950538727102336" cy="544.0125"/><circle r="2" cx="-1.9258692495962917" cy="543.71"/><circle r="2" cx="1.412458683124914" cy="543.71"/><circle r="2" cx="0.7479369361347565" cy="543.71"/><circle r="2" cx="-0.05545089806539938" cy="543.71"/><circle r="2" cx="-1.9857250093135521" cy="543.71"/><circle r="2" cx="-0.6668452438258994" cy="543.105"/><circle r="2" cx="-0.38573160223633796" cy="542.72"/><circle r="2" cx="1.208470820142134" cy="542.72"/><circle r="2" cx="-1.5031768273611377" cy="542.72"/><circle r="2" cx="-1.5824543085973835" cy="542.4725"/><circle r="2" cx="-0.10003209687457915" cy="542.1425"/><circle r="2" cx="0.9332441549811197" cy="542.115"/><circle r="2" cx="0.588494970541908" cy="541.4"/><circle r="2" cx="-0.10706310120950313" cy="541.4"/><circle r="2" cx="1.130637684489285" cy="541.2075"/><circle r="2" cx="-1.2143828808444992" cy="541.1525"/><circle r="2" cx="-0.4765297852343595" cy="540.905"/><circle r="2" cx="-0.8575739360335328" cy="540.7125"/><circle r="2" cx="-1.5188635767558711" cy="540.685"/><circle r="2" cx="-0.7818808068772256" cy="540.6025"/><circle r="2" cx="1.100215713192397" cy="540.6025"/><circle r="2" cx="0.3781991371100375" cy="540.6025"/><circle r="2" cx="-0.9011191874034754" cy="540.3"/><circle r="2" cx="1.5626550808274047" cy="540.1075"/><circle r="2" cx="1.0583903229153737" cy="539.97"/><circle r="2" cx="-0.7401850388924434" cy="539.7225"/><circle r="2" cx="-0.7939134274154176" cy="539.64"/><circle r="2" cx="-0.0437539207967097" cy="539.6125"/><circle r="2" cx="-0.0363586886090852" cy="539.5575"/><circle r="2" cx="1.1972774495325087" cy="539.4475"/><circle r="2" cx="0.09006557764609635" cy="539.3375"/><circle r="2" cx="1.259613800780821" cy="539.3375"/><circle r="2" cx="-0.36883724251709626" cy="539.3375"/><circle r="2" cx="0.9449739540237694" cy="539.31"/><circle r="2" cx="0.25437081670301165" cy="457.745"/><circle r="2" cx="-1.3035712229342176" cy="457.745"/><circle r="2" cx="-0.5978112716039412" cy="457.745"/><circle r="2" cx="-1.8016088127809065" cy="457.69"/><circle r="2" cx="-0.447492975134713" cy="457.47"/><circle r="2" cx="0.18969959726407204" cy="457.415"/><circle r="2" cx="-0.5157877476491048" cy="457.3875"/><circle r="2" cx="-0.31034529399424216" cy="456.865"/><circle r="2" cx="1.812662018205824" cy="456.865"/><circle r="2" cx="-1.5081722599298413" cy="456.865"/><circle r="2" cx="-0.8203660845186258" cy="456.81"/><circle r="2" cx="0.0734523846067523" cy="456.59000000000003"/><circle r="2" cx="-0.8120481897245178" cy="456.5075"/><circle r="2" cx="1.3802080468824096" cy="456.315"/><circle r="2" cx="-1.7076823582816534" cy="456.315"/><circle r="2" cx="1.3946118720429714" cy="456.095"/><circle r="2" cx="-0.45473210314384893" cy="455.875"/><circle r="2" cx="-0.912765029454782" cy="455.875"/><circle r="2" cx="-1.3168496847482318" cy="455.6825"/><circle r="2" cx="1.044586980652003" cy="455.4075"/><circle r="2" cx="-0.5186215794188724" cy="455.4075"/><circle r="2" cx="-1.5924928076514355" cy="455.2975"/><circle r="2" cx="-1.8309129215190705" cy="455.2975"/><circle r="2" cx="0.6884396110264266" cy="455.05"/><circle r="2" cx="-0.32388749537366923" cy="454.995"/><circle r="2" cx="-0.014146461483885098" cy="454.9675"/><circle r="2" cx="0.951824025658011" cy="454.94"/><circle r="2" cx="1.2855825753944092" cy="454.61"/><circle r="2" cx="1.5406201113210338" cy="454.555"/><circle r="2" cx="-1.0640945225422493" cy="454.3625"/><circle r="2" cx="1.536253562531436" cy="454.1425"/><circle r="2" cx="-1.1441583941746858" cy="453.895"/><circle r="2" cx="-1.7952161551464103" cy="453.8675"/><circle r="2" cx="0.5930111970432881" cy="453.8675"/><circle r="2" cx="0.6884145827962369" cy="453.73"/><circle r="2" cx="-1.8588056546556722" cy="453.73"/><circle r="2" cx="-1.7561275165325627" cy="453.7025"/><circle r="2" cx="-0.3697774731018413" cy="453.64750000000004"/><circle r="2" cx="-0.3660177898340633" cy="453.565"/><circle r="2" cx="1.5278014559427637" cy="453.565"/><circle r="2" cx="0.05734111927027197" cy="453.4"/><circle r="2" cx="0.3076796268374302" cy="453.4"/><circle r="2" cx="-0.26074338083307325" cy="453.3725"/><circle r="2" cx="1.4739752461545441" cy="453.3175"/><circle r="2" cx="-0.6575856712869443" cy="453.29"/><circle r="2" cx="1.1843358286709176" cy="453.235"/><circle r="2" cx="0.9428659126974752" cy="453.07"/><circle r="2" cx="1.6309168934460585" cy="453.07"/><circle r="2" cx="0.5418782059064338" cy="452.905"/><circle r="2" cx="-0.25930445331699126" cy="452.46500000000003"/><circle r="2" cx="-1.5223985550051973" cy="452.4375"/><circle r="2" cx="-1.686286736473794" cy="452.3275"/><circle r="2" cx="0.5292838427497335" cy="452.27250000000004"/><circle r="2" cx="0.9432153880031606" cy="452.1625"/><circle r="2" cx="1.5207223832976613" cy="452.0525"/><circle r="2" cx="1.9292209864821102" cy="451.64"/><circle r="2" cx="0.17573812805218036" cy="451.4475"/><circle r="2" cx="-0.674677303837651" cy="451.2"/><circle r="2" cx="0.617901549489047" cy="451.1175"/><circle r="2" cx="1.7526001994503764" cy="451.1175"/><circle r="2" cx="0.24588434419691385" cy="451.0625"/><circle r="2" cx="-0.8926457291759062" cy="451.0625"/><circle r="2" cx="-1.0175113836083218" cy="450.76"/><circle r="2" cx="-1.3440493014288917" cy="450.76"/><circle r="2" cx="-0.6395252942456784" cy="450.6775"/><circle r="2" cx="-0.04987239436174917" cy="450.6225"/><circle r="2" cx="1.835141119882075" cy="450.375"/><circle r="2" cx="0.32692580914617153" cy="450.045"/><circle r="2" cx="-1.7226240926093075" cy="450.045"/><circle r="2" cx="0.9635797599900178" cy="450.0175"/><circle r="2" cx="1.8513705024324798" cy="449.85249999999996"/><circle r="2" cx="-1.8945926178036094" cy="449.77"/><circle r="2" cx="-1.3336115583931596" cy="449.6325"/><circle r="2" cx="-1.4383721055254117" cy="449.55"/><circle r="2" cx="0.19095588742646896" cy="449.495"/><circle r="2" cx="1.929041543481289" cy="449.4675"/><circle r="2" cx="0.23440931793634778" cy="449.02750000000003"/><circle r="2" cx="1.6698177432086956" cy="448.8075"/><circle r="2" cx="-1.978276065106149" cy="448.8075"/><circle r="2" cx="-1.1321459483062437" cy="447.9275"/><circle r="2" cx="-1.382301298192142" cy="447.7075"/><circle r="2" cx="-0.892200784956537" cy="447.515"/><circle r="2" cx="-1.4307936336581797" cy="447.405"/><circle r="2" cx="-0.17494722032036947" cy="447.1575"/><circle r="2" cx="-1.9289916378110021" cy="446.745"/><circle r="2" cx="-1.5627820869152504" cy="446.525"/><circle r="2" cx="1.267350581331253" cy="446.3325"/><circle r="2" cx="1.2185824981856896" cy="446.14"/><circle r="2" cx="1.876316125087647" cy="446.14"/><circle r="2" cx="1.4434723435629824" cy="444.9575"/><circle r="2" cx="-0.32480511207360596" cy="444.325"/><circle r="2" cx="0.0030041772906361786" cy="443.61"/><circle r="2" cx="-0.8436138014871499" cy="442.29"/><circle r="2" cx="1.2923822859666547" cy="441.96000000000004"/><circle r="2" cx="1.5372793578343336" cy="441.3275"/><circle r="2" cx="1.11610840210703" cy="440.695"/><circle r="2" cx="-1.7956799713492737" cy="440.31"/><circle r="2" cx="1.372041757583495" cy="438.055"/><circle r="2" cx="-0.22840992409480876" cy="438"/><circle r="2" cx="0.02722079879903294" cy="437.945"/><circle r="2" cx="-0.039412711466972006" cy="437.175"/><circle r="2" cx="-0.2230598675186517" cy="436.7075"/><circle r="2" cx="0.8353146197545422" cy="436.405"/><circle r="2" cx="0.6516849649633221" cy="436.35"/><circle r="2" cx="-1.3376168186910737" cy="436.24"/><circle r="2" cx="1.5068742700507745" cy="435.5525"/><circle r="2" cx="-1.7966805564386146" cy="435.14"/><circle r="2" cx="-0.6845475560719905" cy="434.5075"/><circle r="2" cx="1.4501178376224138" cy="434.23249999999996"/><circle r="2" cx="1.9762866320514503" cy="433.84749999999997"/><circle r="2" cx="-0.2729409705065651" cy="433.84749999999997"/><circle r="2" cx="-1.0874497097381308" cy="433.02250000000004"/><circle r="2" cx="-1.046439927245462" cy="432.335"/><circle r="2" cx="-1.2043742136187827" cy="431.97749999999996"/><circle r="2" cx="1.8682131627311573" cy="431.97749999999996"/><circle r="2" cx="0.32103172306187044" cy="431.97749999999996"/><circle r="2" cx="-0.4129032966899633" cy="431.7575"/><circle r="2" cx="1.2036424802005357" cy="431.09749999999997"/><circle r="2" cx="-1.1996375999591686" cy="431.07"/><circle r="2" cx="-1.1189223410131657" cy="430.96"/><circle r="2" cx="1.4724597137424862" cy="430.135"/><circle r="2" cx="-0.006487083078808631" cy="428.265"/><circle r="2" cx="1.5283280619842348" cy="428.265"/><circle r="2" cx="0.2933135265520459" cy="426.8075"/><circle r="2" cx="-0.8147601023136062" cy="425.59749999999997"/><circle r="2" cx="-0.47324146207132856" cy="424.58"/><circle r="2" cx="-1.6378101161491738" cy="423.205"/><circle r="2" cx="-1.5149310052869804" cy="423.205"/><circle r="2" cx="-0.9731119692020185" cy="417.6775"/><circle r="2" cx="-1.0337703760793095" cy="417.6775"/><circle r="2" cx="-0.9034694540056281" cy="417.6775"/><circle r="2" cx="-1.7483137028709868" cy="417.6775"/><circle r="2" cx="1.0842564465888413" cy="417.6775"/><circle r="2" cx="-0.7936570191885073" cy="409.3725"/><circle r="2" cx="1.0072866830153862" cy="389.90250000000003"/><circle r="2" cx="-0.4286151345437226" cy="388.3075"/></g></g><g><path stroke="currentColor" d="&#10;        M170,409.9225&#10;        V526.3025&#10;      "/><path fill="#ddd" d="&#10;        M153,453.565&#10;        H189&#10;        V482.65999999999997&#10;        H153&#10;        Z&#10;      "/><path stroke="currentColor" stroke-width="2" d="&#10;        M153,467.53499999999997&#10;        H189&#10;      "/><g fill="currentColor" fill-opacity="0.2" stroke="none" transform="translate(170,0)"><circle r="2" cx="-1.2328035421733716" cy="536.12"/><circle r="2" cx="1.1966202726864879" cy="535.625"/><circle r="2" cx="-0.7784239284018915" cy="534.965"/><circle r="2" cx="1.8285920466062162" cy="533.59"/><circle r="2" cx="1.2224228178791572" cy="533.59"/><circle r="2" cx="1.4535307404381221" cy="533.315"/><circle r="2" cx="1.3390120389585434" cy="533.315"/><circle r="2" cx="0.4260299577212274" cy="532.875"/><circle r="2" cx="-0.46892395793617947" cy="527.4575"/><circle r="2" cx="-0.18743822217006922" cy="526.825"/><circle r="2" cx="0.9774859760877614" cy="409.8125"/><circle r="2" cx="1.1223559628336153" cy="409.73"/><circle r="2" cx="0.38602966430352303" cy="408.98749999999995"/><circle r="2" cx="-0.5873951818199927" cy="408.3275"/><circle r="2" cx="-0.12968220294340416" cy="408.3275"/><circle r="2" cx="0.3375255221253868" cy="408.135"/><circle r="2" cx="1.469810937650382" cy="408.10749999999996"/><circle r="2" cx="-1.2991412145666326" cy="407.9425"/><circle r="2" cx="0.5739928902442815" cy="407.8325"/><circle r="2" cx="-1.1679331117319691" cy="407.5575"/><circle r="2" cx="-1.6543266626317132" cy="406.4575"/><circle r="2" cx="0.40120350373282054" cy="405.605"/><circle r="2" cx="0.9065614747200899" cy="405.55"/><circle r="2" cx="1.2811646207029241" cy="405.4675"/><circle r="2" cx="-0.29376410173931955" cy="405.3025"/><circle r="2" cx="1.4698202067354291" cy="405.22"/><circle r="2" cx="1.036207887242754" cy="405.0825"/><circle r="2" cx="-1.163882654609143" cy="404.89"/><circle r="2" cx="-1.1354433288263746" cy="404.505"/><circle r="2" cx="1.281616123072384" cy="403.95500000000004"/><circle r="2" cx="-1.21700866649965" cy="402.58"/><circle r="2" cx="-0.10251684223961721" cy="402.41499999999996"/><circle r="2" cx="0.3885811934195704" cy="401.59"/><circle r="2" cx="0.5641056405502498" cy="399.28"/><circle r="2" cx="0.8413617780610263" cy="398.675"/><circle r="2" cx="0.6610554373774598" cy="398.48249999999996"/><circle r="2" cx="1.280667212559595" cy="397.0525"/><circle r="2" cx="0.584762988293412" cy="396.9975"/><circle r="2" cx="0.7506364669017609" cy="396.695"/><circle r="2" cx="-0.5933950852816512" cy="395.705"/><circle r="2" cx="1.192176890118625" cy="395.1"/><circle r="2" cx="1.8470308193717244" cy="394.02750000000003"/><circle r="2" cx="1.9821447220313075" cy="392.8725"/><circle r="2" cx="-0.09010770389346945" cy="392.79"/><circle r="2" cx="-0.023667345546501295" cy="392.185"/><circle r="2" cx="-1.0567692665321902" cy="391.58"/><circle r="2" cx="1.0167057573583973" cy="390.89250000000004"/><circle r="2" cx="-1.0322657811669735" cy="387.07"/><circle r="2" cx="-1.4496780042033697" cy="386.46500000000003"/><circle r="2" cx="-1.7893123260235635" cy="386.29999999999995"/><circle r="2" cx="0.5158827589457253" cy="386.0525"/><circle r="2" cx="-1.7622868357487276" cy="383.88"/><circle r="2" cx="0.670398721158997" cy="382.97249999999997"/><circle r="2" cx="-0.7320509162445781" cy="382.89"/><circle r="2" cx="1.0408683891594244" cy="382.8075"/><circle r="2" cx="-1.8088123211080278" cy="382.17499999999995"/><circle r="2" cx="-1.321052600031015" cy="382.065"/><circle r="2" cx="-1.7841395537903102" cy="381.02"/><circle r="2" cx="-1.455060950922963" cy="380.5525"/><circle r="2" cx="-1.9636730302310763" cy="380.47"/><circle r="2" cx="-1.9238347328750294" cy="378.84749999999997"/><circle r="2" cx="0.6735027685527379" cy="377.33500000000004"/><circle r="2" cx="-1.3960239712427045" cy="374.20000000000005"/><circle r="2" cx="-0.7804714372494148" cy="373.89750000000004"/><circle r="2" cx="-1.9665892524055835" cy="373.375"/><circle r="2" cx="0.6727609171139912" cy="371.615"/><circle r="2" cx="1.652119279969245" cy="371.175"/><circle r="2" cx="-1.4251516340836794" cy="369.635"/><circle r="2" cx="0.6159255096951641" cy="366.6925"/><circle r="2" cx="-1.788328382788536" cy="366.0875"/><circle r="2" cx="1.938788575950527" cy="362.54"/><circle r="2" cx="0.7391530849794199" cy="357.9475"/><circle r="2" cx="-1.4674589907637188" cy="356.9575"/><circle r="2" cx="0.4935460440859414" cy="353.0525"/><circle r="2" cx="-0.1684084968005184" cy="343.4275"/><circle r="2" cx="-0.9902187994540084" cy="330.5575"/><circle r="2" cx="-1.9936479517454462" cy="323.0775"/><circle r="2" cx="-0.5552615583952907" cy="317.495"/><circle r="2" cx="-1.3643768044373523" cy="305.01"/></g></g><g><path stroke="currentColor" d="&#10;        M207,303.1915625&#10;        V534.9890625&#10;      "/><path fill="#ddd" d="&#10;        M190,390.115625&#10;        H226&#10;        V448.065&#10;        H190&#10;        Z&#10;      "/><path stroke="currentColor" stroke-width="2" d="&#10;        M190,427.20625&#10;        H226&#10;      "/><g fill="currentColor" fill-opacity="0.2" stroke="none" transform="translate(207,0)"><circle r="2" cx="0.9267176194424422" cy="535.295"/><circle r="2" cx="0.8902027394776262" cy="303.16749999999996"/><circle r="2" cx="-0.46110897922009464" cy="303.1125"/><circle r="2" cx="-1.8835316338773174" cy="303.0025"/><circle r="2" cx="-0.09835810076248919" cy="302.975"/><circle r="2" cx="-1.7099960217027466" cy="302.9475"/><circle r="2" cx="1.9949176695036588" cy="302.9475"/><circle r="2" cx="-1.063375549725409" cy="302.92"/><circle r="2" cx="-1.4369946115968624" cy="302.59"/><circle r="2" cx="-0.06466703834617782" cy="302.48"/><circle r="2" cx="-0.678616025910034" cy="302.315"/><circle r="2" cx="-1.886412545973962" cy="302.28749999999997"/><circle r="2" cx="0.13846295146641108" cy="302.15000000000003"/><circle r="2" cx="-1.1210128220808606" cy="302.15000000000003"/><circle r="2" cx="-0.5739040750140907" cy="301.02250000000004"/><circle r="2" cx="-1.9587653248466976" cy="300.94"/><circle r="2" cx="-0.15625134837024124" cy="300.885"/><circle r="2" cx="-0.3183235582200421" cy="300.72"/><circle r="2" cx="-1.7082209345835144" cy="300.61"/><circle r="2" cx="-0.19200513749022186" cy="300.555"/><circle r="2" cx="-0.18137498666440344" cy="300.5275"/><circle r="2" cx="-1.1849326119374366" cy="300.5275"/><circle r="2" cx="-1.5274923472608508" cy="300.28"/><circle r="2" cx="0.4356273151262453" cy="300.225"/><circle r="2" cx="1.4059340286062723" cy="300.0875"/><circle r="2" cx="0.34215299784021" cy="300.03249999999997"/><circle r="2" cx="-0.6954073321443559" cy="299.95"/><circle r="2" cx="0.6125862033757139" cy="299.95"/><circle r="2" cx="1.624568975897228" cy="299.6475"/><circle r="2" cx="-1.78752121826221" cy="299.3175"/><circle r="2" cx="0.34749769486835014" cy="299.2625"/><circle r="2" cx="-1.49810469945513" cy="298.96"/><circle r="2" cx="-1.091113783353605" cy="298.905"/><circle r="2" cx="-0.0220225367002147" cy="298.76750000000004"/><circle r="2" cx="-0.44522802673327977" cy="298.65749999999997"/><circle r="2" cx="0.40868641285968277" cy="298.575"/><circle r="2" cx="-0.7982436617647055" cy="298.575"/><circle r="2" cx="0.30053199447847856" cy="298.575"/><circle r="2" cx="-0.6714784897310091" cy="298.52"/><circle r="2" cx="0.3083373709103574" cy="298.2725"/><circle r="2" cx="-0.09496796257838813" cy="298.245"/><circle r="2" cx="1.7260384636527109" cy="298.135"/><circle r="2" cx="1.048775830335619" cy="297.8325"/><circle r="2" cx="0.5263908148643628" cy="297.7225"/><circle r="2" cx="-0.693772224314368" cy="297.7225"/><circle r="2" cx="0.8184772846928166" cy="297.7225"/><circle r="2" cx="-0.8235737444906484" cy="297.7225"/><circle r="2" cx="1.4993739740365886" cy="297.7225"/><circle r="2" cx="1.5128938936115217" cy="297.53"/><circle r="2" cx="-1.2306322788666906" cy="297.255"/><circle r="2" cx="-0.8847643908921121" cy="297.255"/><circle r="2" cx="1.8333976325452292" cy="297.255"/><circle r="2" cx="0.8985443333512846" cy="296.925"/><circle r="2" cx="-0.16272915665203058" cy="296.8975"/><circle r="2" cx="-1.086075800632739" cy="296.87"/><circle r="2" cx="-1.9685395696781436" cy="296.815"/><circle r="2" cx="-1.6107878078032902" cy="296.2375"/><circle r="2" cx="0.8026078524292464" cy="295.9625"/><circle r="2" cx="-0.22467763317754041" cy="295.9625"/><circle r="2" cx="0.44780653420960803" cy="295.90749999999997"/><circle r="2" cx="-0.6496697750588751" cy="295.77"/><circle r="2" cx="-0.6063029394635011" cy="295.55"/><circle r="2" cx="-0.025250700798351566" cy="295.0825"/><circle r="2" cx="0.8922837344808068" cy="294.9175"/><circle r="2" cx="-1.590289475058765" cy="294.6975"/><circle r="2" cx="0.15468250141474638" cy="294.6975"/><circle r="2" cx="-1.2020007953050937" cy="294.56"/><circle r="2" cx="0.8829426811300136" cy="294.4775"/><circle r="2" cx="1.7612850575890295" cy="294.4775"/><circle r="2" cx="0.3470095955964725" cy="294.23"/><circle r="2" cx="0.8718861662876956" cy="294.20250000000004"/><circle r="2" cx="-0.07522995241099384" cy="294.11999999999995"/><circle r="2" cx="-0.4863793025953633" cy="293.8175"/><circle r="2" cx="-1.5398054001589685" cy="293.735"/><circle r="2" cx="-0.3832940555521507" cy="293.735"/><circle r="2" cx="-0.4568180576276557" cy="293.735"/><circle r="2" cx="1.8010358642735342" cy="293.65250000000003"/><circle r="2" cx="1.0652658150815322" cy="293.57"/><circle r="2" cx="-0.3103798119419583" cy="293.54249999999996"/><circle r="2" cx="0.9988856760466591" cy="293.405"/><circle r="2" cx="0.3706861817498135" cy="293.3225"/><circle r="2" cx="0.8804643453149632" cy="293.21250000000003"/><circle r="2" cx="0.47190317851650043" cy="293.1025"/><circle r="2" cx="-0.19080909036012006" cy="292.8275"/><circle r="2" cx="0.6170793967625547" cy="292.745"/><circle r="2" cx="1.8041125084349687" cy="292.745"/><circle r="2" cx="1.948230580712666" cy="292.4425"/><circle r="2" cx="1.7036632947969403" cy="292.14"/><circle r="2" cx="1.6664481069893649" cy="291.9475"/><circle r="2" cx="-1.312813676274473" cy="291.8925"/><circle r="2" cx="1.3694248627362278" cy="291.8375"/><circle r="2" cx="1.7386851666420933" cy="291.425"/><circle r="2" cx="-0.2882698375117654" cy="291.3425"/><circle r="2" cx="0.8095098454878542" cy="291.315"/><circle r="2" cx="-1.5832539705414126" cy="291.1225"/><circle r="2" cx="-0.18516165528174966" cy="291.04"/><circle r="2" cx="-0.39440439583553744" cy="290.95750000000004"/><circle r="2" cx="1.212727962942366" cy="290.0225"/><circle r="2" cx="0.9104113897427073" cy="289.60999999999996"/><circle r="2" cx="1.3091390804742975" cy="289.5825"/><circle r="2" cx="1.0280521666240583" cy="289.39"/><circle r="2" cx="1.7641462737572313" cy="289.19750000000005"/><circle r="2" cx="0.1745546944994567" cy="288.9225"/><circle r="2" cx="1.0877779690943052" cy="288.895"/><circle r="2" cx="-0.773688791683373" cy="288.73"/><circle r="2" cx="1.4465729434825274" cy="288.51"/><circle r="2" cx="-0.5576778377868425" cy="288.3725"/><circle r="2" cx="-1.1579286060325522" cy="288.235"/><circle r="2" cx="-0.5580228755566097" cy="287.905"/><circle r="2" cx="-1.6137535849897198" cy="287.74"/><circle r="2" cx="-0.8462648146671965" cy="287.685"/><circle r="2" cx="1.775256456715712" cy="287.21750000000003"/><circle r="2" cx="-0.09937059523722525" cy="287.08000000000004"/><circle r="2" cx="1.7945678138954175" cy="286.97"/><circle r="2" cx="-0.3656454610109794" cy="286.75"/><circle r="2" cx="-1.6358735318143243" cy="286.6125"/><circle r="2" cx="-1.2822926897038212" cy="286.53000000000003"/><circle r="2" cx="-1.2368240161681872" cy="286.3925"/><circle r="2" cx="0.9080317749482392" cy="286.3925"/><circle r="2" cx="-0.18693208924486537" cy="286.36499999999995"/><circle r="2" cx="-1.579851230667031" cy="286.36499999999995"/><circle r="2" cx="0.025377242746201567" cy="286.31"/><circle r="2" cx="-0.8810821233754407" cy="286.0075"/><circle r="2" cx="-0.6782061707074174" cy="285.95250000000004"/><circle r="2" cx="0.9767464055264075" cy="285.8425"/><circle r="2" cx="1.7620339894063308" cy="285.6225"/><circle r="2" cx="-0.09527768263825198" cy="285.59499999999997"/><circle r="2" cx="-0.1378431356423233" cy="285.485"/><circle r="2" cx="-1.5548077445674995" cy="285.375"/><circle r="2" cx="1.6327759894816785" cy="285.375"/><circle r="2" cx="-0.49790640894689275" cy="285.3475"/><circle r="2" cx="1.691914267992531" cy="284.88"/><circle r="2" cx="-1.3171073647765006" cy="284.44"/><circle r="2" cx="-0.06427920587580527" cy="284.3575"/><circle r="2" cx="-0.5689029474639806" cy="284.10999999999996"/><circle r="2" cx="1.9037102938433161" cy="283.8075"/><circle r="2" cx="1.7862741054521534" cy="283.725"/><circle r="2" cx="0.9963873406011743" cy="283.67"/><circle r="2" cx="-0.4378871052826572" cy="283.01"/><circle r="2" cx="1.978246753384651" cy="282.9275"/><circle r="2" cx="0.7534275899694984" cy="282.8175"/><circle r="2" cx="1.515338268777504" cy="282.735"/><circle r="2" cx="0.5148772898897596" cy="282.65250000000003"/><circle r="2" cx="0.5982918259886487" cy="282.5425"/><circle r="2" cx="1.8255176291318866" cy="282.5425"/><circle r="2" cx="-1.307582619020888" cy="282.2675"/><circle r="2" cx="1.5617352639584148" cy="282.2675"/><circle r="2" cx="1.7555342912174607" cy="281.90999999999997"/><circle r="2" cx="-1.9104880875434622" cy="281.6075"/><circle r="2" cx="0.46037741114981934" cy="281.305"/><circle r="2" cx="0.982903074792743" cy="281.2775"/><circle r="2" cx="0.7784717423153991" cy="281.03000000000003"/><circle r="2" cx="-0.8679922683564225" cy="280.92"/><circle r="2" cx="-0.7884513360125993" cy="280.8375"/><circle r="2" cx="0.5910819176103894" cy="280.1775"/><circle r="2" cx="0.053356370336103076" cy="279.985"/><circle r="2" cx="-1.059677074545708" cy="279.985"/><circle r="2" cx="1.0593149597989306" cy="279.545"/><circle r="2" cx="-1.9076681247885015" cy="279.4075"/><circle r="2" cx="1.6528159079956666" cy="279.1325"/><circle r="2" cx="-0.2181245719168965" cy="279.1325"/><circle r="2" cx="-0.4366555218577055" cy="279.05"/><circle r="2" cx="-0.30676246741583224" cy="278.445"/><circle r="2" cx="0.11850860673041907" cy="278.3075"/><circle r="2" cx="1.219099592056704" cy="278.0875"/><circle r="2" cx="1.6567671961984987" cy="277.97749999999996"/><circle r="2" cx="-0.14366277537250305" cy="277.3725"/><circle r="2" cx="1.0959178710293473" cy="277.29"/><circle r="2" cx="-0.3662639402116419" cy="276.7675"/><circle r="2" cx="1.4468562346135245" cy="276.52000000000004"/><circle r="2" cx="-1.6017157185466377" cy="276.2725"/><circle r="2" cx="0.555884552128461" cy="276.08"/><circle r="2" cx="1.884779099946294" cy="275.9425"/><circle r="2" cx="-1.2047288830640008" cy="275.85999999999996"/><circle r="2" cx="-0.3123032333761504" cy="275.72249999999997"/><circle r="2" cx="1.43323350951482" cy="275.6675"/><circle r="2" cx="0.403196421368305" cy="275.64"/><circle r="2" cx="0.44716495072935736" cy="275.5025"/><circle r="2" cx="1.3069709967151866" cy="275.475"/><circle r="2" cx="0.8881244508961661" cy="274.87"/><circle r="2" cx="-1.7348582827667336" cy="274.59499999999997"/><circle r="2" cx="0.7900295753542883" cy="274.43"/><circle r="2" cx="-0.4572287783130857" cy="274.32"/><circle r="2" cx="-1.0043621369699052" cy="274.32"/><circle r="2" cx="-1.0444400903975843" cy="274.18249999999995"/><circle r="2" cx="0.6356628727067184" cy="274.09999999999997"/><circle r="2" cx="1.028399147736076" cy="274.0725"/><circle r="2" cx="-0.022110417642029923" cy="273.99"/><circle r="2" cx="1.331479747680473" cy="273.8525"/><circle r="2" cx="1.7194620476272906" cy="273.7425"/><circle r="2" cx="-1.9793166025801403" cy="273.385"/><circle r="2" cx="-1.4333411248144685" cy="273.3575"/><circle r="2" cx="1.7893110511408192" cy="273.3025"/><circle r="2" cx="1.666231362018582" cy="273.0825"/><circle r="2" cx="1.8518924389714275" cy="273.0825"/><circle r="2" cx="-1.8886432144310819" cy="273"/><circle r="2" cx="1.2427555288607337" cy="273"/><circle r="2" cx="0.8154451783708172" cy="272.89"/><circle r="2" cx="0.3992838304615898" cy="272.7525"/><circle r="2" cx="0.48371825233853727" cy="272.3125"/><circle r="2" cx="-0.4534562127486783" cy="271.625"/><circle r="2" cx="1.8915042970455067" cy="271.57"/><circle r="2" cx="-1.5105926903869422" cy="271.34999999999997"/><circle r="2" cx="-0.8110005068230786" cy="271.3225"/><circle r="2" cx="-0.029411708318841434" cy="271.1575"/><circle r="2" cx="1.5754694171695212" cy="271.02000000000004"/><circle r="2" cx="-0.13463071425134565" cy="270.96500000000003"/><circle r="2" cx="-0.18402962468933115" cy="270.85499999999996"/><circle r="2" cx="-0.3030479256980394" cy="270.6075"/><circle r="2" cx="0.7127951183093781" cy="270.58"/><circle r="2" cx="0.04237712118349446" cy="270.4975"/><circle r="2" cx="-1.8236960687161723" cy="270.0575"/><circle r="2" cx="-1.648758114285413" cy="269.83750000000003"/><circle r="2" cx="1.9632605921082744" cy="269.5075"/><circle r="2" cx="1.8528757640833948" cy="269.34250000000003"/><circle r="2" cx="-1.9443650082973738" cy="268.90250000000003"/><circle r="2" cx="0.6914006940028248" cy="268.76500000000004"/><circle r="2" cx="0.5922565652850054" cy="268.76500000000004"/><circle r="2" cx="-0.42480925267202796" cy="268.40749999999997"/><circle r="2" cx="0.5918466537902001" cy="268.40749999999997"/><circle r="2" cx="-1.253345044515827" cy="267.94"/><circle r="2" cx="-1.9893357557658335" cy="267.94"/><circle r="2" cx="-0.7489073286526065" cy="267.6925"/><circle r="2" cx="0.6415729405193904" cy="267.63750000000005"/><circle r="2" cx="0.5190159532472505" cy="267.08750000000003"/><circle r="2" cx="-1.712539146903076" cy="266.97749999999996"/><circle r="2" cx="-1.8999492131029498" cy="266.8125"/><circle r="2" cx="-0.8143685462159205" cy="266.73"/><circle r="2" cx="0.8813586047495763" cy="266.0975"/><circle r="2" cx="-1.406028826643448" cy="265.9325"/><circle r="2" cx="0.7719980161898299" cy="265.79499999999996"/><circle r="2" cx="0.21422343490417983" cy="265.46500000000003"/><circle r="2" cx="-1.2229504335660915" cy="265.245"/><circle r="2" cx="1.8275715279762803" cy="264.64"/><circle r="2" cx="-0.08358776584016692" cy="264.33750000000003"/><circle r="2" cx="1.5660082891821512" cy="264.33750000000003"/><circle r="2" cx="-0.6030341238317387" cy="264.31"/><circle r="2" cx="0.38437039736350176" cy="264.2"/><circle r="2" cx="1.959509485565814" cy="263.98"/><circle r="2" cx="-0.18793531127491736" cy="263.87"/><circle r="2" cx="-1.8422109996230338" cy="263.87"/><circle r="2" cx="-0.3796076209594075" cy="263.265"/><circle r="2" cx="-1.7477991626834353" cy="263.0175"/><circle r="2" cx="-1.662952717374714" cy="262.935"/><circle r="2" cx="1.2818173612425108" cy="262.90749999999997"/><circle r="2" cx="-1.0630197591636543" cy="262.90749999999997"/><circle r="2" cx="1.3772026036918632" cy="262.44"/><circle r="2" cx="1.7073593411368035" cy="262.1375"/><circle r="2" cx="0.7484481828869249" cy="262.11"/><circle r="2" cx="1.2851617650868956" cy="261.835"/><circle r="2" cx="-0.7600559238525033" cy="261.7525"/><circle r="2" cx="-1.252367163525812" cy="261.615"/><circle r="2" cx="1.8384612000909435" cy="261.28499999999997"/><circle r="2" cx="1.331331758327261" cy="261.09250000000003"/><circle r="2" cx="-0.705098893010141" cy="261.09250000000003"/><circle r="2" cx="0.4151421142364917" cy="261.09250000000003"/><circle r="2" cx="-1.8747215974938491" cy="260.1025"/><circle r="2" cx="-1.9179862587755565" cy="259.82750000000004"/><circle r="2" cx="1.4583758421738393" cy="258.425"/><circle r="2" cx="-0.5667955804364571" cy="258.2875"/><circle r="2" cx="-0.7993384409312423" cy="257.4625"/><circle r="2" cx="-0.10162619116624949" cy="256.99499999999995"/><circle r="2" cx="-1.2369975941526965" cy="256.85749999999996"/><circle r="2" cx="-1.5110481551299522" cy="256.85749999999996"/><circle r="2" cx="-1.4258408339163262" cy="256.5"/><circle r="2" cx="-1.616221361835783" cy="256.41749999999996"/><circle r="2" cx="0.9190490373984872" cy="256.08750000000003"/><circle r="2" cx="1.0346905596554885" cy="256.0325"/><circle r="2" cx="0.4060782810337935" cy="255.95000000000005"/><circle r="2" cx="-0.4536517985251667" cy="255.675"/><circle r="2" cx="1.1812020252899709" cy="255.565"/><circle r="2" cx="-0.730378165501822" cy="255.34499999999997"/><circle r="2" cx="1.9869267455080752" cy="254.4375"/><circle r="2" cx="1.8757855117163613" cy="254.3825"/><circle r="2" cx="-1.451328686958803" cy="254.3"/><circle r="2" cx="0.25763907176559364" cy="253.9975"/><circle r="2" cx="1.7600022624537752" cy="253.75"/><circle r="2" cx="-1.6366503394681713" cy="253.4475"/><circle r="2" cx="1.7942390837005657" cy="253.255"/><circle r="2" cx="-1.6855731279779942" cy="252.70500000000004"/><circle r="2" cx="0.5617891647809792" cy="252.40249999999997"/><circle r="2" cx="-1.1366455542546507" cy="252.375"/><circle r="2" cx="-1.8030411746596284" cy="251.7425"/><circle r="2" cx="-1.6978744705133542" cy="250.86249999999995"/><circle r="2" cx="1.865698770935845" cy="250.6975"/><circle r="2" cx="-0.8468896486055835" cy="250.14749999999998"/><circle r="2" cx="1.326210696802522" cy="249.8725"/><circle r="2" cx="-0.602007500210032" cy="249.625"/><circle r="2" cx="-1.9733521711548123" cy="249.515"/><circle r="2" cx="-0.050464563004859464" cy="249.515"/><circle r="2" cx="-0.43262000150287605" cy="249.32250000000005"/><circle r="2" cx="-1.1536912049403876" cy="248.8825"/><circle r="2" cx="1.3303601877027615" cy="247.78250000000003"/><circle r="2" cx="-0.23915787835262137" cy="247.23250000000002"/><circle r="2" cx="1.1347605828960958" cy="246.46249999999998"/><circle r="2" cx="-1.9919139283415843" cy="246.40749999999997"/><circle r="2" cx="-1.1062331476092524" cy="245.08749999999998"/><circle r="2" cx="-1.3304895992742907" cy="244.48250000000002"/><circle r="2" cx="-0.5915669020471723" cy="244.45499999999998"/><circle r="2" cx="1.5275485836456815" cy="244.29000000000002"/><circle r="2" cx="0.5182886622744229" cy="244.23499999999996"/><circle r="2" cx="-1.9043592084916057" cy="243.135"/><circle r="2" cx="-1.1870972752543594" cy="243.07999999999998"/><circle r="2" cx="-0.9638855748942126" cy="242.58499999999998"/><circle r="2" cx="-0.5499557656833467" cy="242.1175"/><circle r="2" cx="0.21790627285437125" cy="241.48499999999996"/><circle r="2" cx="-1.0742516927369339" cy="239.56"/><circle r="2" cx="-1.5587054883132856" cy="239.17499999999995"/><circle r="2" cx="0.791051666498622" cy="239.14749999999998"/><circle r="2" cx="0.1990538279326115" cy="239.03750000000002"/><circle r="2" cx="-1.1237182504790928" cy="238.54249999999996"/><circle r="2" cx="-0.03667793970795685" cy="237.305"/><circle r="2" cx="-1.623137299577369" cy="237.25"/><circle r="2" cx="0.3136434288106802" cy="235.875"/><circle r="2" cx="-1.738534158622251" cy="235.875"/><circle r="2" cx="-1.8137347413946951" cy="235.82"/><circle r="2" cx="1.0653414120797091" cy="235.1875"/><circle r="2" cx="-1.9576197612080675" cy="234.91250000000002"/><circle r="2" cx="0.9324376531129577" cy="234.6925"/><circle r="2" cx="-0.1439305249160059" cy="234.5"/><circle r="2" cx="-1.197549847116302" cy="232.8225"/><circle r="2" cx="0.016196873656209476" cy="232.8225"/><circle r="2" cx="-0.40608271152502073" cy="232.4925"/><circle r="2" cx="-0.034403989500686016" cy="231.365"/><circle r="2" cx="-1.5214619535346001" cy="231.33749999999998"/><circle r="2" cx="-0.4808707193781592" cy="229.27499999999998"/><circle r="2" cx="0.3729543244076021" cy="227.70750000000004"/><circle r="2" cx="-1.903265981298052" cy="227.40499999999997"/><circle r="2" cx="0.005753550100646265" cy="225.1775"/><circle r="2" cx="1.3791210021399936" cy="225.0675"/><circle r="2" cx="1.956497500029795" cy="225.0125"/><circle r="2" cx="-1.2612500000725113" cy="224.90250000000003"/><circle r="2" cx="1.822966648003618" cy="224.02249999999998"/><circle r="2" cx="-1.4797840217977303" cy="222.34500000000003"/><circle r="2" cx="-1.0269532582732221" cy="222.20750000000004"/><circle r="2" cx="0.13207797612024308" cy="220.14499999999998"/><circle r="2" cx="-1.9318138614116656" cy="220.0625"/><circle r="2" cx="0.6647110705105224" cy="219.43"/><circle r="2" cx="1.4804098315714365" cy="218.65999999999997"/><circle r="2" cx="1.643676096605751" cy="218.33000000000004"/><circle r="2" cx="0.2952655058711402" cy="218.1375"/><circle r="2" cx="-1.7296383779468156" cy="216.21250000000003"/><circle r="2" cx="1.9289357529184121" cy="215.3875"/><circle r="2" cx="1.0343995840365583" cy="214.92000000000002"/><circle r="2" cx="-0.6264436567985028" cy="213.70999999999998"/><circle r="2" cx="-0.7406793734754169" cy="213.70999999999998"/><circle r="2" cx="1.4244107536025368" cy="212.8025"/><circle r="2" cx="-1.873083823024932" cy="212.60999999999996"/><circle r="2" cx="-1.8542114004804215" cy="210.84999999999997"/><circle r="2" cx="-1.2068227761731567" cy="210.84999999999997"/><circle r="2" cx="-0.16688189138856924" cy="209.4475"/><circle r="2" cx="0.3320473783152389" cy="205.43249999999995"/><circle r="2" cx="1.5231065776563657" cy="203.92000000000002"/><circle r="2" cx="-0.2439761080868399" cy="203.03999999999996"/><circle r="2" cx="1.9274389338917866" cy="201.3625"/><circle r="2" cx="0.4148397775526105" cy="199.16249999999997"/><circle r="2" cx="-0.4244480039743568" cy="196.32999999999998"/><circle r="2" cx="1.4485455209934157" cy="196.32999999999998"/><circle r="2" cx="0.5832629747843168" cy="196.13750000000005"/><circle r="2" cx="0.23025320351454415" cy="185.88"/><circle r="2" cx="0.5464813878188881" cy="185.16500000000002"/><circle r="2" cx="-0.23521501437198022" cy="184.12"/><circle r="2" cx="0.9404227400971878" cy="173.80749999999995"/><circle r="2" cx="-0.034048227479637205" cy="171.41500000000002"/><circle r="2" cx="-0.21749415265213035" cy="171.305"/><circle r="2" cx="-1.0954460089377118" cy="170.5625"/><circle r="2" cx="-1.2327549552280166" cy="168.94"/><circle r="2" cx="-0.8041771567157987" cy="167.78500000000003"/><circle r="2" cx="-1.0259464909028075" cy="166.65750000000003"/><circle r="2" cx="-0.5914653968361785" cy="161.70750000000004"/><circle r="2" cx="-0.6256236070298486" cy="157.3625"/><circle r="2" cx="-0.6719387300666861" cy="155.27249999999998"/><circle r="2" cx="-1.384104184093899" cy="155.27249999999998"/><circle r="2" cx="-1.6145666032176704" cy="152.1925"/><circle r="2" cx="1.732450874757002" cy="151.47749999999996"/><circle r="2" cx="0.4434692453014213" cy="151.14750000000004"/><circle r="2" cx="0.9375647576563191" cy="149.08500000000004"/><circle r="2" cx="-1.3078551065643387" cy="147.32500000000005"/><circle r="2" cx="0.3792719990643638" cy="144.74"/><circle r="2" cx="-0.31508594777461774" cy="141.68749999999994"/><circle r="2" cx="-0.34688157893403737" cy="139.0475"/><circle r="2" cx="-1.7721004252309314" cy="136.40750000000003"/><circle r="2" cx="0.35979315708173587" cy="135.14250000000004"/><circle r="2" cx="-0.91850811868549" cy="131.98000000000002"/><circle r="2" cx="1.5719456099218414" cy="127.9925"/><circle r="2" cx="-0.3022789417351701" cy="127.60750000000002"/><circle r="2" cx="-0.42004541098111403" cy="123.565"/><circle r="2" cx="-0.5514076555903236" cy="118.83499999999998"/><circle r="2" cx="0.3368681299573071" cy="117.10249999999996"/><circle r="2" cx="-0.45320049716872024" cy="101.34500000000003"/><circle r="2" cx="0.40459987257376717" cy="99.75"/><circle r="2" cx="-1.7746858793415248" cy="88.77749999999997"/><circle r="2" cx="-0.17013316866543882" cy="86.27500000000003"/><circle r="2" cx="-0.01846693893959639" cy="77.5025"/><circle r="2" cx="0.7267263630588863" cy="71.92000000000002"/><circle r="2" cx="0.2499653690964001" cy="71.86500000000001"/><circle r="2" cx="-1.4330491922647361" cy="68.64750000000004"/><circle r="2" cx="-0.27189837920829785" cy="67.32749999999999"/><circle r="2" cx="1.5237105699891238" cy="60.09499999999997"/></g></g><g><path stroke="currentColor" d="&#10;        M244,209.29625&#10;        V505.1&#10;      "/><path fill="#ddd" d="&#10;        M227,334.20124999999996&#10;        H263&#10;        V417.47125&#10;        H227&#10;        Z&#10;      "/><path stroke="currentColor" stroke-width="2" d="&#10;        M227,389.13250000000005&#10;        H263&#10;      "/><g fill="currentColor" fill-opacity="0.2" stroke="none" transform="translate(244,0)"><circle r="2" cx="-0.8557292108402272" cy="207.96249999999998"/><circle r="2" cx="-1.6485172533346057" cy="207.88"/><circle r="2" cx="0.9671906878017626" cy="207.60499999999996"/><circle r="2" cx="1.8808285366388295" cy="207"/><circle r="2" cx="1.269019880438937" cy="206.175"/><circle r="2" cx="-1.4605035559513597" cy="205.625"/><circle r="2" cx="-0.5299388512102698" cy="205.3225"/><circle r="2" cx="-0.7256406897412466" cy="203.7"/><circle r="2" cx="0.9476283551164135" cy="203.67249999999996"/><circle r="2" cx="0.11244745943109002" cy="202.59999999999997"/><circle r="2" cx="-1.8868421378265303" cy="201.33499999999998"/><circle r="2" cx="0.5038571957329312" cy="200.42749999999995"/><circle r="2" cx="-1.4880964611539698" cy="199.46500000000003"/><circle r="2" cx="-0.3193450356799046" cy="199.16249999999997"/><circle r="2" cx="1.5609687132096663" cy="197.925"/><circle r="2" cx="-0.8239160716948097" cy="197.76000000000005"/><circle r="2" cx="0.8975906703883734" cy="197.67749999999995"/><circle r="2" cx="-0.07526276801736742" cy="196.13750000000005"/><circle r="2" cx="-1.3744140074905484" cy="196.08250000000004"/><circle r="2" cx="0.6876082404528638" cy="196.055"/><circle r="2" cx="1.4758021132698982" cy="195.3675"/><circle r="2" cx="-0.23859738785073858" cy="195.175"/><circle r="2" cx="-1.3149206543941787" cy="194.54250000000002"/><circle r="2" cx="0.7938355983686556" cy="194.3225"/><circle r="2" cx="0.29063083894727715" cy="194.0475"/><circle r="2" cx="-1.8921765560442765" cy="192.5625"/><circle r="2" cx="0.4219951918245348" cy="192.425"/><circle r="2" cx="-0.1123853229687688" cy="190.41749999999996"/><circle r="2" cx="-1.7017894073304154" cy="189.86749999999995"/><circle r="2" cx="0.11705013485897364" cy="189.83999999999997"/><circle r="2" cx="-1.2274219298706335" cy="186.9525"/><circle r="2" cx="-0.6736188476251543" cy="186.29250000000002"/><circle r="2" cx="-0.06229777341728848" cy="185.96249999999998"/><circle r="2" cx="1.0654077172478722" cy="184.09250000000003"/><circle r="2" cx="1.2374436689927144" cy="183.13"/><circle r="2" cx="1.041437524800389" cy="182.3875"/><circle r="2" cx="0.94856009098012" cy="179.71999999999997"/><circle r="2" cx="1.0154050568782695" cy="179.61"/><circle r="2" cx="-0.32066483944560886" cy="178.64749999999998"/><circle r="2" cx="-0.87898305762271" cy="178.51"/><circle r="2" cx="-1.0274495724964474" cy="176.75"/><circle r="2" cx="0.3590020825588143" cy="176.75"/><circle r="2" cx="-0.9072523468030234" cy="173.615"/><circle r="2" cx="0.9790370124288543" cy="173.2025"/><circle r="2" cx="-1.382437294805607" cy="173.175"/><circle r="2" cx="0.15555051128040542" cy="168.6925"/><circle r="2" cx="-0.5057139660886669" cy="168.06"/><circle r="2" cx="-1.0280600033965142" cy="166.76750000000004"/><circle r="2" cx="1.9379113271183934" cy="164.73250000000002"/><circle r="2" cx="0.9439115484264473" cy="161.8725"/><circle r="2" cx="0.7935699766171851" cy="161.84500000000003"/><circle r="2" cx="-1.6216020163303408" cy="158.82"/><circle r="2" cx="-1.1488172476536018" cy="156.78500000000003"/><circle r="2" cx="1.7661642418727723" cy="156.64749999999998"/><circle r="2" cx="-0.598761262629858" cy="153.815"/><circle r="2" cx="0.9103289002646555" cy="152.41250000000002"/><circle r="2" cx="0.12028855898501067" cy="150.70750000000004"/><circle r="2" cx="-1.2888378790545953" cy="150.70750000000004"/><circle r="2" cx="1.2485110272441258" cy="147.1325"/><circle r="2" cx="-0.06944055498715773" cy="146.885"/><circle r="2" cx="-0.2327061790065743" cy="143.83249999999998"/><circle r="2" cx="-1.0873049777254797" cy="142.78749999999997"/><circle r="2" cx="0.34709637848009933" cy="138.635"/><circle r="2" cx="-0.4184852663269041" cy="135.445"/><circle r="2" cx="-0.7393295100195889" cy="135.33499999999998"/><circle r="2" cx="1.9607995914192768" cy="133.46500000000003"/><circle r="2" cx="1.1758124354799628" cy="133.35499999999996"/><circle r="2" cx="0.49930937921121554" cy="130.88"/><circle r="2" cx="1.2242191339436435" cy="126.42500000000001"/><circle r="2" cx="-1.1944215853908347" cy="123.04250000000002"/><circle r="2" cx="-0.3425628696273231" cy="122.96000000000004"/><circle r="2" cx="-1.0221755969583928" cy="107.77999999999997"/><circle r="2" cx="-1.7131694427472688" cy="107.3675"/><circle r="2" cx="0.6011812886432946" cy="97.21999999999997"/><circle r="2" cx="-0.0980883583388783" cy="92.79249999999996"/><circle r="2" cx="-0.8131372552249347" cy="88.86000000000001"/><circle r="2" cx="1.2730545461291811" cy="86.055"/><circle r="2" cx="-0.8685365563315424" cy="84.26749999999998"/><circle r="2" cx="0.842607581968668" cy="76.87"/><circle r="2" cx="1.3916912760299551" cy="63.03750000000002"/><circle r="2" cx="-1.3150452241949662" cy="55.75"/></g></g><g><path stroke="currentColor" d="&#10;        M282,68.888125&#10;        V488.49&#10;      "/><path fill="#ddd" d="&#10;        M264,233.53749999999997&#10;        H300&#10;        V343.30375&#10;        H264&#10;        Z&#10;      "/><path stroke="currentColor" stroke-width="2" d="&#10;        M264,293.66625&#10;        H300&#10;      "/><g fill="currentColor" fill-opacity="0.2" stroke="none" transform="translate(282,0)"><circle r="2" cx="1.7305636927977606" cy="66.91500000000002"/><circle r="2" cx="-0.9558045719479358" cy="63.56"/><circle r="2" cx="-0.5292234677694188" cy="59.81999999999999"/><circle r="2" cx="-0.5098475149458181" cy="58.11500000000001"/><circle r="2" cx="-0.31223991981934596" cy="56.245000000000005"/><circle r="2" cx="-1.6225537444486315" cy="55.99750000000006"/><circle r="2" cx="0.701459811599169" cy="54.952499999999986"/><circle r="2" cx="-1.6760117403409565" cy="53.63250000000005"/><circle r="2" cx="0.5810986112950012" cy="52.835000000000036"/></g></g><g><path stroke="currentColor" d="&#10;        M319,53.247499999999945&#10;        V441.3825&#10;      "/><path fill="#ddd" d="&#10;        M301,192.101875&#10;        H337&#10;        V307.368125&#10;        H301&#10;        Z&#10;      "/><path stroke="currentColor" stroke-width="2" d="&#10;        M301,255.7025&#10;        H337&#10;      "/><g fill="currentColor" fill-opacity="0.2" stroke="none" transform="translate(319,0)"/></g><g><path stroke="currentColor" d="&#10;        M356,54.78750000000002&#10;        V431.26250000000005&#10;      "/><path fill="#ddd" d="&#10;        M338,158.6275&#10;        H375&#10;        V275.72249999999997&#10;        H338&#10;        Z&#10;      "/><path stroke="currentColor" stroke-width="2" d="&#10;        M338,214.6175&#10;        H375&#10;      "/><g fill="currentColor" fill-opacity="0.2" stroke="none" transform="translate(356,0)"/></g><g><path stroke="currentColor" d="&#10;        M393,52.504999999999995&#10;        V378.7890625&#10;      "/><path fill="#ddd" d="&#10;        M376,106.00625000000002&#10;        H412&#10;        V215.119375&#10;        H376&#10;        Z&#10;      "/><path stroke="currentColor" stroke-width="2" d="&#10;        M376,154.95625&#10;        H412&#10;      "/><g fill="currentColor" fill-opacity="0.2" stroke="none" transform="translate(393,0)"><circle r="2" cx="-0.5231776553512111" cy="431.09749999999997"/><circle r="2" cx="0.0378391628578596" cy="426.9175"/><circle r="2" cx="-1.0407667727283547" cy="421.3625"/><circle r="2" cx="1.6721450463797982" cy="420.67499999999995"/><circle r="2" cx="-0.974800780438918" cy="414.1575"/><circle r="2" cx="1.0929157425030098" cy="413.36"/><circle r="2" cx="-0.2321458062338566" cy="413.36"/><circle r="2" cx="-1.2782313322532435" cy="407.365"/><circle r="2" cx="-0.7212624274904655" cy="404.94500000000005"/><circle r="2" cx="-1.5449669901800567" cy="404.94500000000005"/><circle r="2" cx="1.5718315398649425" cy="402.4975"/><circle r="2" cx="-0.11583971778030655" cy="400.875"/><circle r="2" cx="-0.6604343471860306" cy="396.3375"/><circle r="2" cx="0.8161223401997155" cy="395.98"/><circle r="2" cx="0.5648657188765682" cy="395.54"/><circle r="2" cx="1.2514413595931186" cy="395.485"/><circle r="2" cx="0.7305936123261336" cy="395.485"/><circle r="2" cx="0.6758627101443393" cy="395.1825"/><circle r="2" cx="0.8293364952589162" cy="394.6325"/><circle r="2" cx="-1.821429689886319" cy="394.6325"/><circle r="2" cx="-0.8104906336020701" cy="391.1675"/><circle r="2" cx="0.2704219036090141" cy="390.6725"/><circle r="2" cx="0.3263408123518241" cy="390.37"/><circle r="2" cx="-0.42546009558894315" cy="388.72"/><circle r="2" cx="-0.5991671187569798" cy="388.5825"/><circle r="2" cx="-0.4176758077906051" cy="388.5825"/><circle r="2" cx="-1.3585881778342355" cy="386.135"/><circle r="2" cx="-1.5216463453446618" cy="384.2925"/><circle r="2" cx="-1.1500544511644293" cy="383.11"/><circle r="2" cx="-1.0342120729058317" cy="382.5325"/><circle r="2" cx="1.4719542667626326" cy="381.515"/></g></g><g><path stroke="currentColor" d="&#10;        M430,52.36749999999995&#10;        V332.93625&#10;      "/><path fill="#ddd" d="&#10;        M413,96.195625&#10;        H449&#10;        V190.89187499999997&#10;        H413&#10;        Z&#10;      "/><path stroke="currentColor" stroke-width="2" d="&#10;        M413,134.92249999999996&#10;        H449&#10;      "/><g fill="currentColor" fill-opacity="0.2" stroke="none" transform="translate(430,0)"><circle r="2" cx="-1.9568715668725778" cy="415.8075"/><circle r="2" cx="0.8487817843341858" cy="412.3425"/><circle r="2" cx="1.8972746394303472" cy="390.2875"/><circle r="2" cx="1.7688277923360989" cy="389.49"/><circle r="2" cx="-1.4101170644268093" cy="387.0425"/><circle r="2" cx="-1.4189296033803576" cy="381.35"/><circle r="2" cx="-0.8861077879926356" cy="377.33500000000004"/><circle r="2" cx="0.26246354489017065" cy="375.6025"/><circle r="2" cx="-0.023980777817887322" cy="373.89750000000004"/><circle r="2" cx="-1.3171688224475568" cy="371.28499999999997"/><circle r="2" cx="0.7066998351229969" cy="370.4325"/><circle r="2" cx="-0.7849741963752734" cy="351.815"/><circle r="2" cx="1.9743681524711914" cy="343.95000000000005"/><circle r="2" cx="-0.40928466931717544" cy="337.845"/><circle r="2" cx="-1.6905896507712637" cy="336.4975"/></g></g><g><path stroke="currentColor" d="&#10;        M467,53.934999999999945&#10;        V280.30125&#10;      "/><path fill="#ddd" d="&#10;        M450,88.14499999999998&#10;        H486&#10;        V165.00750000000005&#10;        H450&#10;        Z&#10;      "/><path stroke="currentColor" stroke-width="2" d="&#10;        M450,117.185&#10;        H486&#10;      "/><g fill="currentColor" fill-opacity="0.2" stroke="none" transform="translate(467,0)"><circle r="2" cx="1.0726359833865002" cy="397.0525"/><circle r="2" cx="1.3284335181676266" cy="354.015"/><circle r="2" cx="-1.812206689909723" cy="337.1575"/><circle r="2" cx="1.152730496192663" cy="330.4475"/><circle r="2" cx="-0.323814067026559" cy="302.81"/><circle r="2" cx="1.506491308878953" cy="292.90999999999997"/><circle r="2" cx="-0.7395134651491801" cy="282.07500000000005"/></g></g><g><path stroke="currentColor" d="&#10;        M505,53.33000000000004&#10;        V381.075&#10;      "/><path fill="#ddd" d="&#10;        M487,97.09625000000005&#10;        H523&#10;        V264.4475&#10;        H487&#10;        Z&#10;      "/><path stroke="currentColor" stroke-width="2" d="&#10;        M487,123.42750000000001&#10;        H523&#10;      "/><g fill="currentColor" fill-opacity="0.2" stroke="none" transform="translate(505,0)"/></g><g><path stroke="currentColor" d="&#10;        M542,103.32499999999999&#10;        V390.91999999999996&#10;      "/><path fill="#ddd" d="&#10;        M524,145.64750000000004&#10;        H560&#10;        V290.648125&#10;        H524&#10;        Z&#10;      "/><path stroke="currentColor" stroke-width="2" d="&#10;        M524,229.67375000000004&#10;        H560&#10;      "/><g fill="currentColor" fill-opacity="0.2" stroke="none" transform="translate(542,0)"/></g><g><path stroke="currentColor" d="&#10;        M579,55.47500000000002&#10;        V348.9&#10;      "/><path fill="#ddd" d="&#10;        M561,68.34499999999997&#10;        H598&#10;        V276.6025&#10;        H561&#10;        Z&#10;      "/><path stroke="currentColor" stroke-width="2" d="&#10;        M561,115.20500000000004&#10;        H598&#10;      "/><g fill="currentColor" fill-opacity="0.2" stroke="none" transform="translate(579,0)"/></g><g><path stroke="currentColor" d="&#10;        M616,130.99&#10;        V231.75&#10;      "/><path fill="#ddd" d="&#10;        M599,178.00124999999997&#10;        H635&#10;        V228.38124999999997&#10;        H599&#10;        Z&#10;      "/><path stroke="currentColor" stroke-width="2" d="&#10;        M599,225.0125&#10;        H635&#10;      "/><g fill="currentColor" fill-opacity="0.2" stroke="none" transform="translate(616,0)"/></g><g><path stroke="currentColor" d="&#10;        M653,55.72249999999997&#10;        V223.85750000000002&#10;      "/><path fill="#ddd" d="&#10;        M636,97.75625000000002&#10;        H672&#10;        V181.82374999999996&#10;        H636&#10;        Z&#10;      "/><path stroke="currentColor" stroke-width="2" d="&#10;        M636,139.79000000000002&#10;        H672&#10;      "/><g fill="currentColor" fill-opacity="0.2" stroke="none" transform="translate(653,0)"/></g><g><path stroke="currentColor" d="&#10;        M691,124.6925&#10;        V249.13&#10;      "/><path fill="#ddd" d="&#10;        M673,155.801875&#10;        H709&#10;        V218.020625&#10;        H673&#10;        Z&#10;      "/><path stroke="currentColor" stroke-width="2" d="&#10;        M673,186.91125000000005&#10;        H709&#10;      "/><g fill="currentColor" fill-opacity="0.2" stroke="none" transform="translate(691,0)"/></g><g><path stroke="currentColor" d="&#10;        M728,undefined&#10;        Vundefined&#10;      "/><path fill="#ddd" d="&#10;        M710,undefined&#10;        H746&#10;        Vundefined&#10;        H710&#10;        Z&#10;      "/><path stroke="currentColor" stroke-width="2" d="&#10;        M710,undefined&#10;        H746&#10;      "/><g fill="currentColor" fill-opacity="0.2" stroke="none" transform="translate(728,0)"/></g><g><path stroke="currentColor" d="&#10;        M765,93.45249999999999&#10;        V151.3675&#10;      "/><path fill="#ddd" d="&#10;        M747,121.19312500000001&#10;        H783&#10;        V151.3675&#10;        H747&#10;        Z&#10;      "/><path stroke="currentColor" stroke-width="2" d="&#10;        M747,140.90375&#10;        H783&#10;      "/><g fill="currentColor" fill-opacity="0.2" stroke="none" transform="translate(765,0)"/></g><g><path stroke="currentColor" d="&#10;        M802,undefined&#10;        Vundefined&#10;      "/><path fill="#ddd" d="&#10;        M784,undefined&#10;        H821&#10;        Vundefined&#10;        H784&#10;        Z&#10;      "/><path stroke="currentColor" stroke-width="2" d="&#10;        M784,undefined&#10;        H821&#10;      "/><g fill="currentColor" fill-opacity="0.2" stroke="none" transform="translate(802,0)"/></g><g><path stroke="currentColor" d="&#10;        M839,60.397500000000036&#10;        V60.397500000000036&#10;      "/><path fill="#ddd" d="&#10;        M822,60.397500000000036&#10;        H858&#10;        V60.397500000000036&#10;        H822&#10;        Z&#10;      "/><path stroke="currentColor" stroke-width="2" d="&#10;        M822,60.397500000000036&#10;        H858&#10;      "/><g fill="currentColor" fill-opacity="0.2" stroke="none" transform="translate(839,0)"/></g><g><path stroke="currentColor" d="&#10;        M876,undefined&#10;        Vundefined&#10;      "/><path fill="#ddd" d="&#10;        M859,undefined&#10;        H895&#10;        Vundefined&#10;        H859&#10;        Z&#10;      "/><path stroke="currentColor" stroke-width="2" d="&#10;        M859,undefined&#10;        H895&#10;      "/><g fill="currentColor" fill-opacity="0.2" stroke="none" transform="translate(876,0)"/></g><g><path stroke="currentColor" d="&#10;        M914,undefined&#10;        Vundefined&#10;      "/><path fill="#ddd" d="&#10;        M896,undefined&#10;        H932&#10;        Vundefined&#10;        H896&#10;        Z&#10;      "/><path stroke="currentColor" stroke-width="2" d="&#10;        M896,undefined&#10;        H932&#10;      "/><g fill="currentColor" fill-opacity="0.2" stroke="none" transform="translate(914,0)"/></g><g><path stroke="currentColor" d="&#10;        M933,74.505&#10;        V74.505&#10;      "/><path fill="#ddd" d="&#10;        M933,74.505&#10;        H934&#10;        V74.505&#10;        H933&#10;        Z&#10;      "/><path stroke="currentColor" stroke-width="2" d="&#10;        M933,74.505&#10;        H934&#10;      "/><g fill="currentColor" fill-opacity="0.2" stroke="none" transform="translate(933,0)"/></g></g><g transform="translate(0,570)" fill="none" font-size="10" font-family="sans-serif" text-anchor="middle"><path class="domain" stroke="currentColor" d="M40.5,0.5H934.5"/><g class="tick" opacity="1" transform="translate(40.5,0)"><line stroke="currentColor" y2="6"/><text fill="currentColor" y="9" dy="0.71em">0.2</text></g><g class="tick" opacity="1" transform="translate(77.5,0)"><line stroke="currentColor" y2="6"/><text fill="currentColor" y="9" dy="0.71em">0.4</text></g><g class="tick" opacity="1" transform="translate(114.5,0)"><line stroke="currentColor" y2="6"/><text fill="currentColor" y="9" dy="0.71em">0.6</text></g><g class="tick" opacity="1" transform="translate(152.5,0)"><line stroke="currentColor" y2="6"/><text fill="currentColor" y="9" dy="0.71em">0.8</text></g><g class="tick" opacity="1" transform="translate(189.5,0)"><line stroke="currentColor" y2="6"/><text fill="currentColor" y="9" dy="0.71em">1.0</text></g><g class="tick" opacity="1" transform="translate(226.5,0)"><line stroke="currentColor" y2="6"/><text fill="currentColor" y="9" dy="0.71em">1.2</text></g><g class="tick" opacity="1" transform="translate(263.5,0)"><line stroke="currentColor" y2="6"/><text fill="currentColor" y="9" dy="0.71em">1.4</text></g><g class="tick" opacity="1" transform="translate(300.5,0)"><line stroke="currentColor" y2="6"/><text fill="currentColor" y="9" dy="0.71em">1.6</text></g><g class="tick" opacity="1" transform="translate(337.5,0)"><line stroke="currentColor" y2="6"/><text fill="currentColor" y="9" dy="0.71em">1.8</text></g><g class="tick" opacity="1" transform="translate(375.5,0)"><line stroke="currentColor" y2="6"/><text fill="currentColor" y="9" dy="0.71em">2.0</text></g><g class="tick" opacity="1" transform="translate(412.5,0)"><line stroke="currentColor" y2="6"/><text fill="currentColor" y="9" dy="0.71em">2.2</text></g><g class="tick" opacity="1" transform="translate(449.5,0)"><line stroke="currentColor" y2="6"/><text fill="currentColor" y="9" dy="0.71em">2.4</text></g><g class="tick" opacity="1" transform="translate(486.5,0)"><line stroke="currentColor" y2="6"/><text fill="currentColor" y="9" dy="0.71em">2.6</text></g><g class="tick" opacity="1" transform="translate(523.5,0)"><line stroke="currentColor" y2="6"/><text fill="currentColor" y="9" dy="0.71em">2.8</text></g><g class="tick" opacity="1" transform="translate(560.5,0)"><line stroke="currentColor" y2="6"/><text fill="currentColor" y="9" dy="0.71em">3.0</text></g><g class="tick" opacity="1" transform="translate(598.5,0)"><line stroke="currentColor" y2="6"/><text fill="currentColor" y="9" dy="0.71em">3.2</text></g><g class="tick" opacity="1" transform="translate(635.5,0)"><line stroke="currentColor" y2="6"/><text fill="currentColor" y="9" dy="0.71em">3.4</text></g><g class="tick" opacity="1" transform="translate(672.5,0)"><line stroke="currentColor" y2="6"/><text fill="currentColor" y="9" dy="0.71em">3.6</text></g><g class="tick" opacity="1" transform="translate(709.5,0)"><line stroke="currentColor" y2="6"/><text fill="currentColor" y="9" dy="0.71em">3.8</text></g><g class="tick" opacity="1" transform="translate(746.5,0)"><line stroke="currentColor" y2="6"/><text fill="currentColor" y="9" dy="0.71em">4.0</text></g><g class="tick" opacity="1" transform="translate(783.5,0)"><line stroke="currentColor" y2="6"/><text fill="currentColor" y="9" dy="0.71em">4.2</text></g><g class="tick" opacity="1" transform="translate(821.5,0)"><line stroke="currentColor" y2="6"/><text fill="currentColor" y="9" dy="0.71em">4.4</text></g><g class="tick" opacity="1" transform="translate(858.5,0)"><line stroke="currentColor" y2="6"/><text fill="currentColor" y="9" dy="0.71em">4.6</text></g><g class="tick" opacity="1" transform="translate(895.5,0)"><line stroke="currentColor" y2="6"/><text fill="currentColor" y="9" dy="0.71em">4.8</text></g><g class="tick" opacity="1" transform="translate(932.5,0)"><line stroke="currentColor" y2="6"/><text fill="currentColor" y="9" dy="0.71em">5.0</text></g></g><g transform="translate(40,0)" fill="none" font-size="10" font-family="sans-serif" text-anchor="end"><g class="tick" opacity="1" transform="translate(0,570.5)"><line stroke="currentColor" x2="-6"/><text fill="currentColor" x="-9" dy="0.32em">0k</text></g><g class="tick" opacity="1" transform="translate(0,515.5)"><line stroke="currentColor" x2="-6"/><text fill="currentColor" x="-9" dy="0.32em">2k</text></g><g class="tick" opacity="1" transform="translate(0,460.5)"><line stroke="currentColor" x2="-6"/><text fill="currentColor" x="-9" dy="0.32em">4k</text></g><g class="tick" opacity="1" transform="translate(0,405.5)"><line stroke="currentColor" x2="-6"/><text fill="currentColor" x="-9" dy="0.32em">6k</text></g><g class="tick" opacity="1" transform="translate(0,350.5)"><line stroke="currentColor" x2="-6"/><text fill="currentColor" x="-9" dy="0.32em">8k</text></g><g class="tick" opacity="1" transform="translate(0,295.5)"><line stroke="currentColor" x2="-6"/><text fill="currentColor" x="-9" dy="0.32em">10k</text></g><g class="tick" opacity="1" transform="translate(0,240.5)"><line stroke="currentColor" x2="-6"/><text fill="currentColor" x="-9" dy="0.32em">12k</text></g><g class="tick" opacity="1" transform="translate(0,185.5)"><line stroke="currentColor" x2="-6"/><text fill="currentColor" x="-9" dy="0.32em">14k</text></g><g class="tick" opacity="1" transform="translate(0,130.5)"><line stroke="currentColor" x2="-6"/><text fill="currentColor" x="-9" dy="0.32em">16k</text></g><g class="tick" opacity="1" transform="translate(0,75.5)"><line stroke="currentColor" x2="-6"/><text fill="currentColor" x="-9" dy="0.32em">18k</text></g><g class="tick" opacity="1" transform="translate(0,20.5)"><line stroke="currentColor" x2="-6"/><text fill="currentColor" x="-9" dy="0.32em">20k</text></g></g></svg>